<svg xmlns="http://www.w3.org/2000/svg" width="640" height="704" viewBox="0 0 640 704" role="img" aria-labelledby="title description">
<title id="title">The build rhythm.</title>
<desc id="description">Visible contribution activity for tejask-dev: 29 Mar 2026 – 23 Sep 2026. 37 days with visible activity. 10 public original repositories, excluding forks and archives. GitHub intensity levels are not exact contribution or commit counts. Visible activity may include anonymized private contributions.</desc>
<rect width="640" height="704" rx="18" fill="#101719"/>
<g font-family="-apple-system, BlinkMacSystemFont, Segoe UI, Helvetica, Arial, sans-serif">
<text x="32" y="45" font-size="21" font-weight="600" fill="#94a6a2">VISIBLE CONTRIBUTION ACTIVITY</text>
<text x="32" y="107" font-size="48" font-weight="600" fill="#f5f2eb">The build rhythm.</text>
<text x="32" y="149" font-size="22" font-weight="400" fill="#94a6a2">29 Mar 2026 – 23 Sep 2026</text>
<path d="M32 180H608" stroke="#2b3838"/>
<text x="32" y="237" font-size="42" font-weight="600" fill="#a8e5cd">37</text>
<text x="32" y="271" font-size="23" font-weight="400" fill="#f5f2eb">days with activity</text>
<text x="336" y="237" font-size="42" font-weight="600" fill="#a8e5cd">10</text>
<text x="336" y="271" font-size="23" font-weight="400" fill="#f5f2eb">public originals</text>
<text x="336" y="299" font-size="18" font-weight="400" fill="#94a6a2">excludes forks / archives</text>
<path d="M32 558H608" stroke="#2b3838"/>
<text x="48" y="401" font-size="18" font-weight="400" fill="#94a6a2" text-anchor="end">M</text>
<text x="48" y="443" font-size="18" font-weight="400" fill="#94a6a2" text-anchor="end">W</text>
<text x="48" y="485" font-size="18" font-weight="400" fill="#94a6a2" text-anchor="end">F</text>
<rect x="62" y="366" width="16" height="16" rx="3" fill="#202c2c"><title>2026-03-29: intensity 0 of 4</title></rect>
<rect x="62" y="387" width="16" height="16" rx="3" fill="#202c2c"><title>2026-03-30: intensity 0 of 4</title></rect>
<rect x="62" y="408" width="16" height="16" rx="3" fill="#202c2c"><title>2026-03-31: intensity 0 of 4</title></rect>
<text x="62" y="342" font-size="20" font-weight="400" fill="#94a6a2">Apr</text>
<rect x="62" y="429" width="16" height="16" rx="3" fill="#202c2c"><title>2026-04-01: intensity 0 of 4</title></rect>
<rect x="62" y="450" width="16" height="16" rx="3" fill="#202c2c"><title>2026-04-02: intensity 0 of 4</title></rect>
<rect x="62" y="471" width="16" height="16" rx="3" fill="#202c2c"><title>2026-04-03: intensity 0 of 4</title></rect>
<rect x="62" y="492" width="16" height="16" rx="3" fill="#202c2c"><title>2026-04-04: intensity 0 of 4</title></rect>
<rect x="83" y="366" width="16" height="16" rx="3" fill="#202c2c"><title>2026-04-05: intensity 0 of 4</title></rect>
<rect x="83" y="387" width="16" height="16" rx="3" fill="#202c2c"><title>2026-04-06: intensity 0 of 4</title></rect>
<rect x="83" y="408" width="16" height="16" rx="3" fill="#202c2c"><title>2026-04-07: intensity 0 of 4</title></rect>
<rect x="83" y="429" width="16" height="16" rx="3" fill="#202c2c"><title>2026-04-08: intensity 0 of 4</title></rect>
<rect x="83" y="450" width="16" height="16" rx="3" fill="#202c2c"><title>2026-04-09: intensity 0 of 4</title></rect>
<rect x="83" y="471" width="16" height="16" rx="3" fill="#202c2c"><title>2026-04-10: intensity 0 of 4</title></rect>
<rect x="83" y="492" width="16" height="16" rx="3" fill="#202c2c"><title>2026-04-11: intensity 0 of 4</title></rect>
<rect x="104" y="366" width="16" height="16" rx="3" fill="#202c2c"><title>2026-04-12: intensity 0 of 4</title></rect>
<rect x="104" y="387" width="16" height="16" rx="3" fill="#202c2c"><title>2026-04-13: intensity 0 of 4</title></rect>
<rect x="104" y="408" width="16" height="16" rx="3" fill="#202c2c"><title>2026-04-14: intensity 0 of 4</title></rect>
<rect x="104" y="429" width="16" height="16" rx="3" fill="#202c2c"><title>2026-04-15: intensity 0 of 4</title></rect>
<rect x="104" y="450" width="16" height="16" rx="3" fill="#202c2c"><title>2026-04-16: intensity 0 of 4</title></rect>
<rect x="104" y="471" width="16" height="16" rx="3" fill="#202c2c"><title>2026-04-17: intensity 0 of 4</title></rect>
<rect x="104" y="492" width="16" height="16" rx="3" fill="#202c2c"><title>2026-04-18: intensity 0 of 4</title></rect>
<rect x="125" y="366" width="16" height="16" rx="3" fill="#202c2c"><title>2026-04-19: intensity 0 of 4</title></rect>
<rect x="125" y="387" width="16" height="16" rx="3" fill="#202c2c"><title>2026-04-20: intensity 0 of 4</title></rect>
<rect x="125" y="408" width="16" height="16" rx="3" fill="#202c2c"><title>2026-04-21: intensity 0 of 4</title></rect>
<rect x="125" y="429" width="16" height="16" rx="3" fill="#202c2c"><title>2026-04-22: intensity 0 of 4</title></rect>
<rect x="125" y="450" width="16" height="16" rx="3" fill="#202c2c"><title>2026-04-23: intensity 0 of 4</title></rect>
<rect x="125" y="471" width="16" height="16" rx="3" fill="#202c2c"><title>2026-04-24: intensity 0 of 4</title></rect>
<rect x="125" y="492" width="16" height="16" rx="3" fill="#202c2c"><title>2026-04-25: intensity 0 of 4</title></rect>
<rect x="146" y="366" width="16" height="16" rx="3" fill="#202c2c"><title>2026-04-26: intensity 0 of 4</title></rect>
<rect x="146" y="387" width="16" height="16" rx="3" fill="#202c2c"><title>2026-04-27: intensity 0 of 4</title></rect>
<rect x="146" y="408" width="16" height="16" rx="3" fill="#202c2c"><title>2026-04-28: intensity 0 of 4</title></rect>
<rect x="146" y="429" width="16" height="16" rx="3" fill="#202c2c"><title>2026-04-29: intensity 0 of 4</title></rect>
<rect x="146" y="450" width="16" height="16" rx="3" fill="#202c2c"><title>2026-04-30: intensity 0 of 4</title></rect>
<text x="146" y="342" font-size="20" font-weight="400" fill="#94a6a2">May</text>
<rect x="146" y="471" width="16" height="16" rx="3" fill="#202c2c"><title>2026-05-01: intensity 0 of 4</title></rect>
<rect x="146" y="492" width="16" height="16" rx="3" fill="#202c2c"><title>2026-05-02: intensity 0 of 4</title></rect>
<rect x="167" y="366" width="16" height="16" rx="3" fill="#202c2c"><title>2026-05-03: intensity 0 of 4</title></rect>
<rect x="167" y="387" width="16" height="16" rx="3" fill="#202c2c"><title>2026-05-04: intensity 0 of 4</title></rect>
<rect x="167" y="408" width="16" height="16" rx="3" fill="#202c2c"><title>2026-05-05: intensity 0 of 4</title></rect>
<rect x="167" y="429" width="16" height="16" rx="3" fill="#202c2c"><title>2026-05-06: intensity 0 of 4</title></rect>
<rect x="167" y="450" width="16" height="16" rx="3" fill="#202c2c"><title>2026-05-07: intensity 0 of 4</title></rect>
<rect x="167" y="471" width="16" height="16" rx="3" fill="#202c2c"><title>2026-05-08: intensity 0 of 4</title></rect>
<rect x="167" y="492" width="16" height="16" rx="3" fill="#202c2c"><title>2026-05-09: intensity 0 of 4</title></rect>
<rect x="188" y="366" width="16" height="16" rx="3" fill="#202c2c"><title>2026-05-10: intensity 0 of 4</title></rect>
<rect x="188" y="387" width="16" height="16" rx="3" fill="#202c2c"><title>2026-05-11: intensity 0 of 4</title></rect>
<rect x="188" y="408" width="16" height="16" rx="3" fill="#202c2c"><title>2026-05-12: intensity 0 of 4</title></rect>
<rect x="188" y="429" width="16" height="16" rx="3" fill="#202c2c"><title>2026-05-13: intensity 0 of 4</title></rect>
<rect x="188" y="450" width="16" height="16" rx="3" fill="#498c73"><title>2026-05-14: intensity 2 of 4</title></rect>
<rect x="188" y="471" width="16" height="16" rx="3" fill="#202c2c"><title>2026-05-15: intensity 0 of 4</title></rect>
<rect x="188" y="492" width="16" height="16" rx="3" fill="#202c2c"><title>2026-05-16: intensity 0 of 4</title></rect>
<rect x="209" y="366" width="16" height="16" rx="3" fill="#202c2c"><title>2026-05-17: intensity 0 of 4</title></rect>
<rect x="209" y="387" width="16" height="16" rx="3" fill="#202c2c"><title>2026-05-18: intensity 0 of 4</title></rect>
<rect x="209" y="408" width="16" height="16" rx="3" fill="#202c2c"><title>2026-05-19: intensity 0 of 4</title></rect>
<rect x="209" y="429" width="16" height="16" rx="3" fill="#202c2c"><title>2026-05-20: intensity 0 of 4</title></rect>
<rect x="209" y="450" width="16" height="16" rx="3" fill="#202c2c"><title>2026-05-21: intensity 0 of 4</title></rect>
<rect x="209" y="471" width="16" height="16" rx="3" fill="#202c2c"><title>2026-05-22: intensity 0 of 4</title></rect>
<rect x="209" y="492" width="16" height="16" rx="3" fill="#202c2c"><title>2026-05-23: intensity 0 of 4</title></rect>
<rect x="230" y="366" width="16" height="16" rx="3" fill="#202c2c"><title>2026-05-24: intensity 0 of 4</title></rect>
<rect x="230" y="387" width="16" height="16" rx="3" fill="#202c2c"><title>2026-05-25: intensity 0 of 4</title></rect>
<rect x="230" y="408" width="16" height="16" rx="3" fill="#202c2c"><title>2026-05-26: intensity 0 of 4</title></rect>
<rect x="230" y="429" width="16" height="16" rx="3" fill="#30574c"><title>2026-05-27: intensity 1 of 4</title></rect>
<rect x="230" y="450" width="16" height="16" rx="3" fill="#202c2c"><title>2026-05-28: intensity 0 of 4</title></rect>
<rect x="230" y="471" width="16" height="16" rx="3" fill="#202c2c"><title>2026-05-29: intensity 0 of 4</title></rect>
<rect x="230" y="492" width="16" height="16" rx="3" fill="#202c2c"><title>2026-05-30: intensity 0 of 4</title></rect>
<rect x="251" y="366" width="16" height="16" rx="3" fill="#202c2c"><title>2026-05-31: intensity 0 of 4</title></rect>
<text x="251" y="342" font-size="20" font-weight="400" fill="#94a6a2">Jun</text>
<rect x="251" y="387" width="16" height="16" rx="3" fill="#202c2c"><title>2026-06-01: intensity 0 of 4</title></rect>
<rect x="251" y="408" width="16" height="16" rx="3" fill="#202c2c"><title>2026-06-02: intensity 0 of 4</title></rect>
<rect x="251" y="429" width="16" height="16" rx="3" fill="#202c2c"><title>2026-06-03: intensity 0 of 4</title></rect>
<rect x="251" y="450" width="16" height="16" rx="3" fill="#202c2c"><title>2026-06-04: intensity 0 of 4</title></rect>
<rect x="251" y="471" width="16" height="16" rx="3" fill="#202c2c"><title>2026-06-05: intensity 0 of 4</title></rect>
<rect x="251" y="492" width="16" height="16" rx="3" fill="#202c2c"><title>2026-06-06: intensity 0 of 4</title></rect>
<rect x="272" y="366" width="16" height="16" rx="3" fill="#202c2c"><title>2026-06-07: intensity 0 of 4</title></rect>
<rect x="272" y="387" width="16" height="16" rx="3" fill="#30574c"><title>2026-06-08: intensity 1 of 4</title></rect>
<rect x="272" y="408" width="16" height="16" rx="3" fill="#30574c"><title>2026-06-09: intensity 1 of 4</title></rect>
<rect x="272" y="429" width="16" height="16" rx="3" fill="#498c73"><title>2026-06-10: intensity 2 of 4</title></rect>
<rect x="272" y="450" width="16" height="16" rx="3" fill="#202c2c"><title>2026-06-11: intensity 0 of 4</title></rect>
<rect x="272" y="471" width="16" height="16" rx="3" fill="#202c2c"><title>2026-06-12: intensity 0 of 4</title></rect>
<rect x="272" y="492" width="16" height="16" rx="3" fill="#498c73"><title>2026-06-13: intensity 2 of 4</title></rect>
<rect x="293" y="366" width="16" height="16" rx="3" fill="#202c2c"><title>2026-06-14: intensity 0 of 4</title></rect>
<rect x="293" y="387" width="16" height="16" rx="3" fill="#202c2c"><title>2026-06-15: intensity 0 of 4</title></rect>
<rect x="293" y="408" width="16" height="16" rx="3" fill="#202c2c"><title>2026-06-16: intensity 0 of 4</title></rect>
<rect x="293" y="429" width="16" height="16" rx="3" fill="#202c2c"><title>2026-06-17: intensity 0 of 4</title></rect>
<rect x="293" y="450" width="16" height="16" rx="3" fill="#202c2c"><title>2026-06-18: intensity 0 of 4</title></rect>
<rect x="293" y="471" width="16" height="16" rx="3" fill="#202c2c"><title>2026-06-19: intensity 0 of 4</title></rect>
<rect x="293" y="492" width="16" height="16" rx="3" fill="#202c2c"><title>2026-06-20: intensity 0 of 4</title></rect>
<rect x="314" y="366" width="16" height="16" rx="3" fill="#202c2c"><title>2026-06-21: intensity 0 of 4</title></rect>
<rect x="314" y="387" width="16" height="16" rx="3" fill="#202c2c"><title>2026-06-22: intensity 0 of 4</title></rect>
<rect x="314" y="408" width="16" height="16" rx="3" fill="#202c2c"><title>2026-06-23: intensity 0 of 4</title></rect>
<rect x="314" y="429" width="16" height="16" rx="3" fill="#202c2c"><title>2026-06-24: intensity 0 of 4</title></rect>
<rect x="314" y="450" width="16" height="16" rx="3" fill="#202c2c"><title>2026-06-25: intensity 0 of 4</title></rect>
<rect x="314" y="471" width="16" height="16" rx="3" fill="#202c2c"><title>2026-06-26: intensity 0 of 4</title></rect>
<rect x="314" y="492" width="16" height="16" rx="3" fill="#202c2c"><title>2026-06-27: intensity 0 of 4</title></rect>
<rect x="335" y="366" width="16" height="16" rx="3" fill="#202c2c"><title>2026-06-28: intensity 0 of 4</title></rect>
<rect x="335" y="387" width="16" height="16" rx="3" fill="#202c2c"><title>2026-06-29: intensity 0 of 4</title></rect>
<rect x="335" y="408" width="16" height="16" rx="3" fill="#202c2c"><title>2026-06-30: intensity 0 of 4</title></rect>
<text x="335" y="342" font-size="20" font-weight="400" fill="#94a6a2">Jul</text>
<rect x="335" y="429" width="16" height="16" rx="3" fill="#202c2c"><title>2026-07-01: intensity 0 of 4</title></rect>
<rect x="335" y="450" width="16" height="16" rx="3" fill="#202c2c"><title>2026-07-02: intensity 0 of 4</title></rect>
<rect x="335" y="471" width="16" height="16" rx="3" fill="#202c2c"><title>2026-07-03: intensity 0 of 4</title></rect>
<rect x="335" y="492" width="16" height="16" rx="3" fill="#202c2c"><title>2026-07-04: intensity 0 of 4</title></rect>
<rect x="356" y="366" width="16" height="16" rx="3" fill="#202c2c"><title>2026-07-05: intensity 0 of 4</title></rect>
<rect x="356" y="387" width="16" height="16" rx="3" fill="#202c2c"><title>2026-07-06: intensity 0 of 4</title></rect>
<rect x="356" y="408" width="16" height="16" rx="3" fill="#202c2c"><title>2026-07-07: intensity 0 of 4</title></rect>
<rect x="356" y="429" width="16" height="16" rx="3" fill="#202c2c"><title>2026-07-08: intensity 0 of 4</title></rect>
<rect x="356" y="450" width="16" height="16" rx="3" fill="#202c2c"><title>2026-07-09: intensity 0 of 4</title></rect>
<rect x="356" y="471" width="16" height="16" rx="3" fill="#202c2c"><title>2026-07-10: intensity 0 of 4</title></rect>
<rect x="356" y="492" width="16" height="16" rx="3" fill="#202c2c"><title>2026-07-11: intensity 0 of 4</title></rect>
<rect x="377" y="366" width="16" height="16" rx="3" fill="#202c2c"><title>2026-07-12: intensity 0 of 4</title></rect>
<rect x="377" y="387" width="16" height="16" rx="3" fill="#202c2c"><title>2026-07-13: intensity 0 of 4</title></rect>
<rect x="377" y="408" width="16" height="16" rx="3" fill="#30574c"><title>2026-07-14: intensity 1 of 4</title></rect>
<rect x="377" y="429" width="16" height="16" rx="3" fill="#202c2c"><title>2026-07-15: intensity 0 of 4</title></rect>
<rect x="377" y="450" width="16" height="16" rx="3" fill="#30574c"><title>2026-07-16: intensity 1 of 4</title></rect>
<rect x="377" y="471" width="16" height="16" rx="3" fill="#202c2c"><title>2026-07-17: intensity 0 of 4</title></rect>
<rect x="377" y="492" width="16" height="16" rx="3" fill="#202c2c"><title>2026-07-18: intensity 0 of 4</title></rect>
<rect x="398" y="366" width="16" height="16" rx="3" fill="#202c2c"><title>2026-07-19: intensity 0 of 4</title></rect>
<rect x="398" y="387" width="16" height="16" rx="3" fill="#202c2c"><title>2026-07-20: intensity 0 of 4</title></rect>
<rect x="398" y="408" width="16" height="16" rx="3" fill="#30574c"><title>2026-07-21: intensity 1 of 4</title></rect>
<rect x="398" y="429" width="16" height="16" rx="3" fill="#202c2c"><title>2026-07-22: intensity 0 of 4</title></rect>
<rect x="398" y="450" width="16" height="16" rx="3" fill="#202c2c"><title>2026-07-23: intensity 0 of 4</title></rect>
<rect x="398" y="471" width="16" height="16" rx="3" fill="#202c2c"><title>2026-07-24: intensity 0 of 4</title></rect>
<rect x="398" y="492" width="16" height="16" rx="3" fill="#202c2c"><title>2026-07-25: intensity 0 of 4</title></rect>
<rect x="419" y="366" width="16" height="16" rx="3" fill="#202c2c"><title>2026-07-26: intensity 0 of 4</title></rect>
<rect x="419" y="387" width="16" height="16" rx="3" fill="#202c2c"><title>2026-07-27: intensity 0 of 4</title></rect>
<rect x="419" y="408" width="16" height="16" rx="3" fill="#202c2c"><title>2026-07-28: intensity 0 of 4</title></rect>
<rect x="419" y="429" width="16" height="16" rx="3" fill="#30574c"><title>2026-07-29: intensity 1 of 4</title></rect>
<rect x="419" y="450" width="16" height="16" rx="3" fill="#202c2c"><title>2026-07-30: intensity 0 of 4</title></rect>
<rect x="419" y="471" width="16" height="16" rx="3" fill="#202c2c"><title>2026-07-31: intensity 0 of 4</title></rect>
<text x="419" y="342" font-size="20" font-weight="400" fill="#94a6a2">Aug</text>
<rect x="419" y="492" width="16" height="16" rx="3" fill="#202c2c"><title>2026-08-01: intensity 0 of 4</title></rect>
<rect x="440" y="366" width="16" height="16" rx="3" fill="#202c2c"><title>2026-08-02: intensity 0 of 4</title></rect>
<rect x="440" y="387" width="16" height="16" rx="3" fill="#202c2c"><title>2026-08-03: intensity 0 of 4</title></rect>
<rect x="440" y="408" width="16" height="16" rx="3" fill="#202c2c"><title>2026-08-04: intensity 0 of 4</title></rect>
<rect x="440" y="429" width="16" height="16" rx="3" fill="#202c2c"><title>2026-08-05: intensity 0 of 4</title></rect>
<rect x="440" y="450" width="16" height="16" rx="3" fill="#498c73"><title>2026-08-06: intensity 2 of 4</title></rect>
<rect x="440" y="471" width="16" height="16" rx="3" fill="#202c2c"><title>2026-08-07: intensity 0 of 4</title></rect>
<rect x="440" y="492" width="16" height="16" rx="3" fill="#202c2c"><title>2026-08-08: intensity 0 of 4</title></rect>
<rect x="461" y="366" width="16" height="16" rx="3" fill="#30574c"><title>2026-08-09: intensity 1 of 4</title></rect>
<rect x="461" y="387" width="16" height="16" rx="3" fill="#498c73"><title>2026-08-10: intensity 2 of 4</title></rect>
<rect x="461" y="408" width="16" height="16" rx="3" fill="#30574c"><title>2026-08-11: intensity 1 of 4</title></rect>
<rect x="461" y="429" width="16" height="16" rx="3" fill="#30574c"><title>2026-08-12: intensity 1 of 4</title></rect>
<rect x="461" y="450" width="16" height="16" rx="3" fill="#498c73"><title>2026-08-13: intensity 2 of 4</title></rect>
<rect x="461" y="471" width="16" height="16" rx="3" fill="#202c2c"><title>2026-08-14: intensity 0 of 4</title></rect>
<rect x="461" y="492" width="16" height="16" rx="3" fill="#202c2c"><title>2026-08-15: intensity 0 of 4</title></rect>
<rect x="482" y="366" width="16" height="16" rx="3" fill="#30574c"><title>2026-08-16: intensity 1 of 4</title></rect>
<rect x="482" y="387" width="16" height="16" rx="3" fill="#202c2c"><title>2026-08-17: intensity 0 of 4</title></rect>
<rect x="482" y="408" width="16" height="16" rx="3" fill="#30574c"><title>2026-08-18: intensity 1 of 4</title></rect>
<rect x="482" y="429" width="16" height="16" rx="3" fill="#202c2c"><title>2026-08-19: intensity 0 of 4</title></rect>
<rect x="482" y="450" width="16" height="16" rx="3" fill="#30574c"><title>2026-08-20: intensity 1 of 4</title></rect>
<rect x="482" y="471" width="16" height="16" rx="3" fill="#30574c"><title>2026-08-21: intensity 1 of 4</title></rect>
<rect x="482" y="492" width="16" height="16" rx="3" fill="#202c2c"><title>2026-08-22: intensity 0 of 4</title></rect>
<rect x="503" y="366" width="16" height="16" rx="3" fill="#202c2c"><title>2026-08-23: intensity 0 of 4</title></rect>
<rect x="503" y="387" width="16" height="16" rx="3" fill="#30574c"><title>2026-08-24: intensity 1 of 4</title></rect>
<rect x="503" y="408" width="16" height="16" rx="3" fill="#202c2c"><title>2026-08-25: intensity 0 of 4</title></rect>
<rect x="503" y="429" width="16" height="16" rx="3" fill="#30574c"><title>2026-08-26: intensity 1 of 4</title></rect>
<rect x="503" y="450" width="16" height="16" rx="3" fill="#30574c"><title>2026-08-27: intensity 1 of 4</title></rect>
<rect x="503" y="471" width="16" height="16" rx="3" fill="#202c2c"><title>2026-08-28: intensity 0 of 4</title></rect>
<rect x="503" y="492" width="16" height="16" rx="3" fill="#202c2c"><title>2026-08-29: intensity 0 of 4</title></rect>
<rect x="524" y="366" width="16" height="16" rx="3" fill="#202c2c"><title>2026-08-30: intensity 0 of 4</title></rect>
<rect x="524" y="387" width="16" height="16" rx="3" fill="#202c2c"><title>2026-08-31: intensity 0 of 4</title></rect>
<text x="524" y="342" font-size="20" font-weight="400" fill="#94a6a2">Sep</text>
<rect x="524" y="408" width="16" height="16" rx="3" fill="#202c2c"><title>2026-09-01: intensity 0 of 4</title></rect>
<rect x="524" y="429" width="16" height="16" rx="3" fill="#202c2c"><title>2026-09-02: intensity 0 of 4</title></rect>
<rect x="524" y="450" width="16" height="16" rx="3" fill="#30574c"><title>2026-09-03: intensity 1 of 4</title></rect>
<rect x="524" y="471" width="16" height="16" rx="3" fill="#498c73"><title>2026-09-04: intensity 2 of 4</title></rect>
<rect x="524" y="492" width="16" height="16" rx="3" fill="#498c73"><title>2026-09-05: intensity 2 of 4</title></rect>
<rect x="545" y="366" width="16" height="16" rx="3" fill="#30574c"><title>2026-09-06: intensity 1 of 4</title></rect>
<rect x="545" y="387" width="16" height="16" rx="3" fill="#70bb9b"><title>2026-09-07: intensity 3 of 4</title></rect>
<rect x="545" y="408" width="16" height="16" rx="3" fill="#30574c"><title>2026-09-08: intensity 1 of 4</title></rect>
<rect x="545" y="429" width="16" height="16" rx="3" fill="#202c2c"><title>2026-09-09: intensity 0 of 4</title></rect>
<rect x="545" y="450" width="16" height="16" rx="3" fill="#202c2c"><title>2026-09-10: intensity 0 of 4</title></rect>
<rect x="545" y="471" width="16" height="16" rx="3" fill="#202c2c"><title>2026-09-11: intensity 0 of 4</title></rect>
<rect x="545" y="492" width="16" height="16" rx="3" fill="#30574c"><title>2026-09-12: intensity 1 of 4</title></rect>
<rect x="566" y="366" width="16" height="16" rx="3" fill="#30574c"><title>2026-09-13: intensity 1 of 4</title></rect>
<rect x="566" y="387" width="16" height="16" rx="3" fill="#30574c"><title>2026-09-14: intensity 1 of 4</title></rect>
<rect x="566" y="408" width="16" height="16" rx="3" fill="#30574c"><title>2026-09-15: intensity 1 of 4</title></rect>
<rect x="566" y="429" width="16" height="16" rx="3" fill="#202c2c"><title>2026-09-16: intensity 0 of 4</title></rect>
<rect x="566" y="450" width="16" height="16" rx="3" fill="#a8e5cd"><title>2026-09-17: intensity 4 of 4</title></rect>
<rect x="566" y="471" width="16" height="16" rx="3" fill="#30574c"><title>2026-09-18: intensity 1 of 4</title></rect>
<rect x="566" y="492" width="16" height="16" rx="3" fill="#30574c"><title>2026-09-19: intensity 1 of 4</title></rect>
<rect x="587" y="366" width="16" height="16" rx="3" fill="#202c2c"><title>2026-09-20: intensity 0 of 4</title></rect>
<rect x="587" y="387" width="16" height="16" rx="3" fill="#498c73"><title>2026-09-21: intensity 2 of 4</title></rect>
<rect x="587" y="408" width="16" height="16" rx="3" fill="#202c2c"><title>2026-09-22: intensity 0 of 4</title></rect>
<rect x="587" y="429" width="16" height="16" rx="3" fill="#202c2c"><title>2026-09-23: intensity 0 of 4</title></rect>
<text x="32" y="533" font-size="19" font-weight="400" fill="#94a6a2">Intensity</text>
<text x="342" y="533" font-size="18" font-weight="400" fill="#94a6a2">Less</text>
<text x="539" y="533" font-size="18" font-weight="400" fill="#94a6a2">More</text>
<text x="32" y="597" font-size="20" font-weight="400" fill="#94a6a2">Public GitHub calendar · intensity levels</text>
<text x="32" y="631" font-size="20" font-weight="400" fill="#94a6a2">May include anonymized private activity.</text>
<text x="32" y="674" font-size="20" font-weight="400" fill="#94a6a2">Snapshot through 23 Sep 2026 UTC</text>
<rect x="390" y="517" width="16" height="16" rx="3" fill="#202c2c"/>
<rect x="417" y="517" width="16" height="16" rx="3" fill="#30574c"/>
<rect x="444" y="517" width="16" height="16" rx="3" fill="#498c73"/>
<rect x="471" y="517" width="16" height="16" rx="3" fill="#70bb9b"/>
<rect x="498" y="517" width="16" height="16" rx="3" fill="#a8e5cd"/>
</g>
</svg>
