<svg xmlns="http://www.w3.org/2000/svg" width="640" height="670" viewBox="0 0 640 670" role="img" aria-labelledby="title desc">
<title id="title">Four selected builds</title><desc id="desc">ACS Can Drive: community logistics. MoleculeAI: visual chemistry. ModelMind: spreadsheet analysis. PromMatch: compatibility matching.</desc>
<style>
@keyframes travel { to { stroke-dashoffset: -800; } }
.signal { stroke-dasharray: 20 780; animation: travel 18s linear infinite; }
@media (prefers-reduced-motion: reduce) { .signal { animation: none; stroke-dasharray: none; opacity: .35; } }
</style>
<rect width="640" height="670" rx="18" fill="#eff6ff"/>
<rect x=".5" y=".5" width="639" height="669" rx="18" fill="none" stroke="#c0d5f0"/>
<text x="32" y="40" fill="#48658a" font-family="'SFMono-Regular',Consolas,monospace" font-size="16" font-weight="400" >SELECTED BUILDS / EXPLORE THE STORIES BELOW</text><text x="32" y="94" fill="#48658a" font-family="'SFMono-Regular',Consolas,monospace" font-size="17" font-weight="400" >01</text><g transform="translate(100 90)"><rect x="2" y="80" width="17" height="35" rx="3" fill="#235bce" opacity="0.41333333333333333"/><rect x="28" y="52" width="17" height="63" rx="3" fill="#235bce" opacity="0.5866666666666667"/><rect x="54" y="26" width="17" height="89" rx="3" fill="#235bce" opacity="0.76"/><rect x="80" y="5" width="17" height="110" rx="3" fill="#235bce" opacity="0.9333333333333333"/><path d="M0 124H110" stroke="#c0d5f0" stroke-width="2"/></g><text x="32" y="265" fill="#102c52" font-family="-apple-system,BlinkMacSystemFont,'Segoe UI',Arial,sans-serif" font-size="30" font-weight="600" >ACS Can Drive</text><text x="32" y="297" fill="#48658a" font-family="-apple-system,BlinkMacSystemFont,'Segoe UI',Arial,sans-serif" font-size="18" font-weight="400" >Community logistics</text><path d="M312 90V306" stroke="#c0d5f0"/><text x="340" y="94" fill="#48658a" font-family="'SFMono-Regular',Consolas,monospace" font-size="17" font-weight="400" >02</text><g transform="translate(408 90)"><polygon points="52,7 98,33 98,85 52,111 6,85 6,33" fill="none" stroke="#355edb" stroke-width="3"/><path d="M18 40V77M54 96L85 78M54 21L85 40" fill="none" stroke="#355edb" stroke-width="2"/><circle cx="52" cy="7" r="6" fill="#eff6ff" stroke="#355edb" stroke-width="2"/><circle cx="98" cy="33" r="6" fill="#eff6ff" stroke="#355edb" stroke-width="2"/><circle cx="98" cy="85" r="6" fill="#eff6ff" stroke="#355edb" stroke-width="2"/><circle cx="52" cy="111" r="6" fill="#eff6ff" stroke="#355edb" stroke-width="2"/><circle cx="6" cy="85" r="6" fill="#eff6ff" stroke="#355edb" stroke-width="2"/><circle cx="6" cy="33" r="6" fill="#eff6ff" stroke="#355edb" stroke-width="2"/></g><text x="340" y="265" fill="#102c52" font-family="-apple-system,BlinkMacSystemFont,'Segoe UI',Arial,sans-serif" font-size="30" font-weight="600" >MoleculeAI</text><text x="340" y="297" fill="#48658a" font-family="-apple-system,BlinkMacSystemFont,'Segoe UI',Arial,sans-serif" font-size="18" font-weight="400" >Chemistry, made visual</text><text x="32" y="384" fill="#48658a" font-family="'SFMono-Regular',Consolas,monospace" font-size="17" font-weight="400" >03</text><g transform="translate(100 380)"><rect x="0" y="15" width="110" height="92" rx="7" fill="none" stroke="#17679b" stroke-width="2"/><path d="M28 15V107" stroke="#c0d5f0"/><path d="M56 15V107" stroke="#c0d5f0"/><path d="M84 15V107" stroke="#c0d5f0"/><path d="M0 38H110" stroke="#c0d5f0"/><path d="M0 61H110" stroke="#c0d5f0"/><path d="M0 84H110" stroke="#c0d5f0"/><path d="M13 92L40 68L68 80L99 43" fill="none" stroke="#17679b" stroke-width="4"/></g><text x="32" y="555" fill="#102c52" font-family="-apple-system,BlinkMacSystemFont,'Segoe UI',Arial,sans-serif" font-size="30" font-weight="600" >ModelMind</text><text x="32" y="587" fill="#48658a" font-family="-apple-system,BlinkMacSystemFont,'Segoe UI',Arial,sans-serif" font-size="18" font-weight="400" >Questions → analysis</text><path d="M312 380V596" stroke="#c0d5f0"/><text x="340" y="384" fill="#48658a" font-family="'SFMono-Regular',Consolas,monospace" font-size="17" font-weight="400" >04</text><g transform="translate(408 380)"><path d="M13 15C50 15 60 15 98 15" fill="none" stroke="#c0d5f0" stroke-width="2"/><path d="M13 15C50 15 60 57 98 57" fill="none" stroke="#c0d5f0" stroke-width="2"/><path d="M13 57C50 57 60 15 98 15" fill="none" stroke="#c0d5f0" stroke-width="2"/><path d="M13 57C50 57 60 100 98 100" fill="none" stroke="#c0d5f0" stroke-width="2"/><path d="M13 100C50 100 60 57 98 57" fill="none" stroke="#c0d5f0" stroke-width="2"/><path d="M13 100C50 100 60 100 98 100" fill="none" stroke="#c0d5f0" stroke-width="2"/><path d="M13 57C50 57 60 100 98 100" fill="none" stroke="#235bce" stroke-width="3"/><circle cx="13" cy="15" r="8" fill="#eff6ff" stroke="#235bce" stroke-width="2"/><circle cx="13" cy="57" r="8" fill="#eff6ff" stroke="#235bce" stroke-width="2"/><circle cx="13" cy="100" r="8" fill="#eff6ff" stroke="#235bce" stroke-width="2"/><circle cx="98" cy="15" r="8" fill="#eff6ff" stroke="#235bce" stroke-width="2"/><circle cx="98" cy="57" r="8" fill="#eff6ff" stroke="#235bce" stroke-width="2"/><circle cx="98" cy="100" r="8" fill="#eff6ff" stroke="#235bce" stroke-width="2"/></g><text x="340" y="555" fill="#102c52" font-family="-apple-system,BlinkMacSystemFont,'Segoe UI',Arial,sans-serif" font-size="30" font-weight="600" >PromMatch</text><text x="340" y="587" fill="#48658a" font-family="-apple-system,BlinkMacSystemFont,'Segoe UI',Arial,sans-serif" font-size="18" font-weight="400" >Preferences → matches</text>
</svg>
